<?xml version="1.0" encoding="utf-8"?>
<!-- Generator: Adobe Illustrator 24.3.0, SVG Export Plug-In . SVG Version: 6.00 Build 0)  -->
<svg version="1.1" id="Capa_2_1_" xmlns="http://www.w3.org/2000/svg" xmlns:xlink="http://www.w3.org/1999/xlink" x="0px" y="0px"
	 viewBox="0 0 512 512" style="enable-background:new 0 0 512 512;" xml:space="preserve">
<style type="text/css">
	.st0{display:none;}
	.st1{fill:#081E2D;}
</style>
<g id="Layer_1">
	<path class="st0" d="M-223.1,197.4c1.1,0,2.2-0.1,3.3-0.4c2-0.5,4-1.4,5.6-2.7l-1.5,8c-0.2,0.8,0.4,1.6,1.2,1.7
		c0.4,0.1,0.8,0,1.1-0.2c2.5-1.8,5.6-2.5,8.7-2c0.8,0.1,1.6-0.4,1.7-1.2c0.1-0.4,0-0.8-0.3-1.1l-4.8-6.7c7.8,1.5,15.3-3.6,16.8-11.4
		c1.1-5.8-1.5-11.8-6.5-14.9l-21.9-13.6c-0.7-0.4-1.6-0.2-2,0.5l0,0l-13.5,22c-4.2,6.7-2.1,15.6,4.6,19.8
		C-228.3,196.7-225.7,197.4-223.1,197.4L-223.1,197.4z M-212.2,199.9l1.2-6.1l3.6,5C-209.1,198.9-210.7,199.3-212.2,199.9
		L-212.2,199.9z M-234.1,185.7c-0.7-2.9-0.2-6,1.4-8.6l12.7-20.7l20.6,12.8c5.3,3.3,7,10.4,3.7,15.7s-10.2,7-15.5,3.8
		c-0.3-0.2-0.7-0.3-1-0.2h-0.1c-0.4,0.1-0.8,0.3-1,0.7c-3.3,5.4-10.4,7-15.7,3.7C-231.6,191.2-233.4,188.6-234.1,185.7L-234.1,185.7
		z"/>
	<g id="XMLID_1_">
		<g>
			<path class="st1" d="M465.9,452.1c0.1,23.4-18.8,42.5-42.2,42.6L175.9,496l-42.7,10c-2.7,0.6-5.5,1-8.2,1
				c-16.6,0-31-11.5-34.8-27.7L3.8,110.4c-4.5-19.3,7.5-38.5,26.7-43.1L292.7,6c19.3-4.5,38.5,7.5,43.1,26.7l2.8,11.9l82.8-0.4
				c11.3-0.1,22.1,4.3,30.1,12.3c8,7.9,12.5,18.7,12.6,29.9L465.9,452.1z M338.6,44.6l83.5,356.9c4.5,19.3-7.5,38.6-26.7,43.1
				l-167,39.1l195.3-1c16.8-0.1,30.3-13.8,30.2-30.6l-2-365.8 M394.1,433c12.8-3,20.8-15.8,17.8-28.6l-86.4-369
				C323,24.7,313.4,17,302.4,17c-1.8,0-3.7,0.2-5.5,0.6L34.7,79C21.9,82,14,94.8,16.9,107.7l86.4,368.9l0,0
				c3,12.8,15.8,20.8,28.6,17.8l42.6-10c0.4-0.1,0.9-0.2,1.3-0.3L394.1,433z"/>
		</g>
	</g>
</g>
</svg>
