<?xml version="1.0" encoding="utf-8"?>
<!-- Generator: Adobe Illustrator 24.3.0, SVG Export Plug-In . SVG Version: 6.00 Build 0)  -->
<svg version="1.1" id="Capa_2" xmlns="http://www.w3.org/2000/svg" xmlns:xlink="http://www.w3.org/1999/xlink" x="0px" y="0px"
	 viewBox="0 0 512 512" style="enable-background:new 0 0 512 512;" xml:space="preserve">
<style type="text/css">
	.st0{display:none;}
	.st1{fill:#081E2D;}
	.st2{fill:url(#SVGID_1_);}
	.st3{fill:url(#SVGID_2_);}
	.st4{fill:none;stroke:#000000;stroke-width:0.5;stroke-linecap:round;stroke-linejoin:round;}
	.st5{fill:none;stroke:#FFFFFF;stroke-width:0.5;stroke-linecap:round;stroke-linejoin:round;}
	.st6{fill:url(#SVGID_3_);stroke:#000000;stroke-miterlimit:10;}
	.st7{fill:#FFFFFF;stroke:#FF0006;stroke-width:9;stroke-miterlimit:10;}
</style>
<g id="Layer_1">
	<path class="st0" d="M-223.1,197.4c1.1,0,2.2-0.1,3.3-0.4c2-0.5,4-1.4,5.6-2.7l-1.5,8c-0.2,0.8,0.4,1.6,1.2,1.7
		c0.4,0.1,0.8,0,1.1-0.2c2.5-1.8,5.6-2.5,8.7-2c0.8,0.1,1.6-0.4,1.7-1.2c0.1-0.4,0-0.8-0.3-1.1l-4.8-6.7c7.8,1.5,15.3-3.6,16.8-11.4
		c1.1-5.8-1.5-11.8-6.5-14.9l-21.9-13.6c-0.7-0.4-1.6-0.2-2,0.5c0,0,0,0,0,0l-13.5,22c-4.2,6.7-2.1,15.6,4.6,19.8
		C-228.3,196.7-225.7,197.4-223.1,197.4L-223.1,197.4z M-212.2,199.9l1.2-6.1l3.6,5C-209.1,198.9-210.7,199.3-212.2,199.9
		L-212.2,199.9z M-234.1,185.7c-0.7-2.9-0.2-6,1.4-8.6l12.7-20.7l20.6,12.8c5.3,3.3,7,10.4,3.7,15.7c-3.3,5.3-10.2,7-15.5,3.8
		c-0.3-0.2-0.7-0.3-1-0.2l-0.1,0c-0.4,0.1-0.8,0.3-1,0.7c-3.3,5.4-10.4,7-15.7,3.7C-231.6,191.2-233.4,188.6-234.1,185.7
		L-234.1,185.7z"/>
	<g id="XMLID_1_">
		<g>
			<path class="st1" d="M463,447.1c0.1,23.4-18.8,42.5-42.2,42.6l-247.8,1.3l-42.7,10c-2.7,0.6-5.5,1-8.2,1
				c-16.6,0-31-11.5-34.8-27.7L0.9,105.4c-4.5-19.3,7.5-38.5,26.7-43.1L289.8,1c19.3-4.5,38.5,7.5,43.1,26.7l2.8,11.9l82.8-0.4
				c11.3-0.1,22.1,4.3,30.1,12.3c8,7.9,12.5,18.7,12.6,29.9L463,447.1z M420.8,477.7c16.8-0.1,30.3-13.8,30.2-30.6l-2-365.8
				c-0.1-16.7-13.7-30.2-30.4-30.2h-0.2l-80,0.4l80.8,345c0,0,0,0,0,0c4.5,19.3-7.5,38.6-26.7,43.1l-167,39.1L420.8,477.7z
				 M391.2,428c12.8-3,20.8-15.8,17.8-28.6L322.6,30.4C320.1,19.7,310.5,12,299.5,12c-1.8,0-3.7,0.2-5.5,0.6L31.8,74
				C19,77,11.1,89.8,14,102.7l86.4,368.9c0,0,0,0,0,0c3,12.8,15.8,20.8,28.6,17.8l42.6-10c0.4-0.1,0.9-0.2,1.3-0.3L391.2,428z"/>
			<linearGradient id="SVGID_1_" gradientUnits="userSpaceOnUse" x1="225.5572" y1="264.9557" x2="451.0375" y2="264.9557">
				<stop  offset="0.419" style="stop-color:#0008E9"/>
				<stop  offset="1" style="stop-color:#00C5E9"/>
			</linearGradient>
			<path class="st2" d="M451,447.2c0.1,16.8-13.5,30.5-30.2,30.6l-195.2,1.1l167-39.1c19.3-4.5,31.2-23.8,26.7-43.1c0,0,0,0,0,0
				l-80.8-345l80-0.4h0.2c16.7,0,30.3,13.5,30.4,30.2L451,447.2z"/>
			<linearGradient id="SVGID_2_" gradientUnits="userSpaceOnUse" x1="13.4115" y1="251.0019" x2="409.6302" y2="251.0019">
				<stop  offset="0" style="stop-color:#940000"/>
				<stop  offset="1" style="stop-color:#D46300"/>
			</linearGradient>
			<path class="st3" d="M409,399.4c3,12.8-5,25.6-17.8,28.6l-218.3,51.1c-0.4,0.1-0.9,0.2-1.3,0.3l-42.6,10
				c-12.8,3-25.6-5-28.6-17.8c0,0,0,0,0,0L14,102.7C11.1,89.8,19,77,31.8,74L294,12.6c1.8-0.4,3.6-0.6,5.5-0.6
				c11.1,0,20.6,7.6,23.2,18.4L409,399.4z"/>
		</g>
		<g>
			<path class="st4" d="M129,489.4c-12.8,3-25.6-5-28.6-17.8c0,0,0,0,0,0L14,102.7C11.1,89.8,19,77,31.8,74L294,12.6
				c1.8-0.4,3.6-0.6,5.5-0.6c11.1,0,20.6,7.6,23.2,18.4L409,399.4c3,12.8-5,25.6-17.8,28.6l-218.3,51.1c-0.4,0.1-0.9,0.2-1.3,0.3
				L129,489.4z"/>
			<path class="st5" d="M420.8,477.7l-195.2,1.1l167-39.1c19.3-4.5,31.2-23.8,26.7-43.1c0,0,0,0,0,0l-80.8-345l80-0.4h0.2
				c16.7,0,30.3,13.5,30.4,30.2l2,365.8C451.1,463.9,437.6,477.6,420.8,477.7z"/>
		</g>
	</g>
	<linearGradient id="SVGID_3_" gradientUnits="userSpaceOnUse" x1="75.7247" y1="251.004" x2="347.3188" y2="251.004">
		<stop  offset="0.2001" style="stop-color:#D46300"/>
		<stop  offset="1" style="stop-color:#940000"/>
	</linearGradient>
	<path class="st6" d="M108.7,339.7L108.7,339.7c-49-56.8-42.7-142.5,14.1-191.5l0,0c56.8-49,142.5-42.7,191.5,14.1l0,0
		c49,56.8,42.7,142.5-14.1,191.5l0,0C243.4,402.8,157.7,396.5,108.7,339.7z"/>
	<g>
		<path class="st7" d="M186.6,179.3c-2.8,12.6-6.4,24.4-10.8,35.2c-5.8,14.8-10.4,23.6-13.8,26.5c-3.6,3.1-7.8,1.7-12.7-4
			c-1.7-2-2.7-4.1-3.1-6.4c-0.2-2.1,0.8-5.2,3.1-9.3c6.5-12.9,14.3-33.6,23.4-62.1c4.1-12.9,8-20.9,11.6-24c2.4-2,5.5-2.6,9.4-1.9
			c2.6,0.5,4.6,1.7,6.1,3.5c2.4,2.8,4.2,9.5,5.6,19.9c12.1,80.2,24.6,140.6,37.6,181.2c3.2,9.9,4.8,16.3,5,19.2
			c0.4,4.9-0.4,8.2-2.6,10c-2.1,1.8-5.3,2.2-9.4,1.3c-2.4-0.5-4.3-1.6-5.7-3.3c-5.1-6.1-13.4-33.4-24.9-82.1
			C194.7,237.4,188.4,202.8,186.6,179.3z"/>
	</g>
	<g>
		<g id="XMLID_2_">
			<g>
				<path class="st1" d="M64.3,139.9c0.1,1.2-0.1,2.1-0.7,2.6c-0.5,0.5-1.4,0.6-2.4,0.3c-0.6-0.1-1.1-0.4-1.5-0.8
					c-1.3-1.6-3.5-8.6-6.4-21.1c-2.8-11.7-4.4-20.6-4.8-26.6c-0.7,3.2-1.6,6.2-2.8,9c-1.5,3.8-2.7,6.1-3.5,6.8c-0.9,0.8-2,0.4-3.2-1
					c-0.4-0.5-0.7-1.1-0.8-1.6c-0.1-0.5,0.2-1.3,0.8-2.4c1.7-3.3,3.7-8.6,6-15.9c1.1-3.3,2-5.4,3-6.1c0.6-0.5,1.4-0.7,2.4-0.5
					c0.7,0.1,1.2,0.4,1.6,0.9c0.6,0.7,1.1,2.4,1.4,5.1c3.1,20.6,6.3,36,9.6,46.5C63.8,137.5,64.2,139.1,64.3,139.9z"/>
			</g>
			<g>
			</g>
		</g>
	</g>
	<g>
		<g id="XMLID_3_">
			<g>
				<path class="st1" d="M361.2,359.5c-0.1-1.2,0.1-2.1,0.6-2.6c0.6-0.5,1.4-0.6,2.4-0.3c0.6,0.1,1.1,0.4,1.5,0.8
					c1.3,1.6,3.4,8.6,6.4,21c2.8,11.7,4.4,20.6,4.8,26.6c0.7-3.2,1.6-6.2,2.8-9c1.5-3.8,2.7-6.1,3.5-6.8c0.9-0.8,2-0.4,3.2,1
					c0.4,0.5,0.7,1.1,0.8,1.6c0.1,0.5-0.2,1.3-0.8,2.4c-1.7,3.3-3.7,8.6-6,15.9c-1,3.3-2,5.4-3,6.1c-0.6,0.5-1.4,0.7-2.4,0.5
					c-0.7-0.1-1.2-0.4-1.6-0.9c-0.6-0.7-1.1-2.4-1.4-5.1c-3.1-20.6-6.3-36.1-9.6-46.5C361.6,361.9,361.2,360.3,361.2,359.5z"/>
			</g>
			<g>
			</g>
		</g>
	</g>
</g>
</svg>
