<?xml version="1.0" encoding="utf-8"?>
<!-- Generator: Adobe Illustrator 24.3.0, SVG Export Plug-In . SVG Version: 6.00 Build 0)  -->
<svg version="1.1" id="Capa_1" xmlns="http://www.w3.org/2000/svg" xmlns:xlink="http://www.w3.org/1999/xlink" x="0px" y="0px"
	 viewBox="0 0 512 593.9" style="enable-background:new 0 0 512 593.9;" xml:space="preserve">
<style type="text/css">
	.st0{fill:#3F90FF;}
	.st1{display:none;fill:#E62E2E;}
	.st2{fill:#FF9C51;}
	.st3{display:none;fill:#606060;}
	.st4{fill:#F9F4F3;}
	.st5{display:none;fill:#F0E6E1;}
	.st6{display:none;}
	.st7{display:inline;}
	.st8{display:inline;fill:#F0E6E1;}
	.st9{fill:#CC2F3D;}
	.st10{fill:#FFFFFF;}
	.st11{fill:#1F9DFF;}
	.st12{fill:#1F48FF;}
	.st13{fill:none;}
</style>
<path class="st0" d="M406,31H45C20.1,31,0,51.1,0,76v240c0,24.9,20.1,45,45,45h15v75c0,6,3.6,11.4,9.3,13.8c5.4,2.4,12,1.2,16.2-3.3
	l86.8-85.5H406c24.9,0,45-20.1,45-45V76C451,51.1,430.9,31,406,31L406,31z"/>
<path class="st1" d="M-45.9,61v240c0,24.9-20.1,45-45,45h-180V16h180C-66,16-45.9,36.1-45.9,61z"/>
<path class="st2" d="M466,211h-90h-90c-24.8,0-45,20.2-45,45v120c0,24.8,20.2,45,45,45h83.8l6.2,6.2l49.4,49.4
	c4.3,4.3,10.8,5.6,16.3,3.3c5.6-2.3,9.3-7.8,9.3-13.9v-45h15c24.8,0,46-20.2,46-45V256C512,231.2,490.8,211,466,211L466,211z"/>
<path class="st3" d="M642.2,374.9c5.6-2.3,9.3-7.8,9.3-13.9v-45h15c24.8,0,46-20.2,46-45V151c0-24.8-21.2-45-46-45h-90v216.2
	l49.4,49.4C630.2,375.9,636.7,377.2,642.2,374.9z"/>
<path class="st4" d="M416.6,290.4c-5.9-5.9-15.4-5.9-21.2,0L376,309.8l-15,15l-11.9-11.9c-5.9-5.9-15.4-5.9-21.2,0s-5.9,15.4,0,21.2
	l22.5,22.5c2.9,2.9,6.8,4.4,10.6,4.4s7.7-1.5,10.6-4.4l4.4-4.4l40.6-40.6C422.5,305.7,422.5,296.3,416.6,290.4L416.6,290.4z"/>
<path class="st5" d="M628.4,382.2c-5.9-5.9-15.4-5.9-21.2,0l-19.4,19.4V444l40.6-40.6C634.2,397.6,634.2,388.1,628.4,382.2z"/>
<g class="st6">
	<g class="st7">
		<path class="st4" d="M-170.4,560.9h-90c-8.3,0-15-6.7-15-15s6.7-15,15-15h90c8.3,0,15,6.7,15,15S-162.1,560.9-170.4,560.9z"/>
		<path class="st4" d="M-125.4,485.9c0,8.4-6.6,15-15,15h-120c-8.4,0-15-6.6-15-15s6.6-15,15-15h120
			C-132,470.9-125.4,477.5-125.4,485.9z"/>
		<path class="st4" d="M-5.4,425.9c0,8.4-6.6,15-15,15h-240c-8.4,0-15-6.6-15-15s6.6-15,15-15h240C-12,410.9-5.4,417.5-5.4,425.9z"
			/>
	</g>
	<path class="st8" d="M-125.4,485.9c0,8.4-6.6,15-15,15v-30C-132,470.9-125.4,477.5-125.4,485.9z"/>
	<path class="st8" d="M-5.4,425.9c0,8.4-6.6,15-15,15h-120v-30h120C-12,410.9-5.4,417.5-5.4,425.9z"/>
</g>
<g>
	<circle class="st9" cx="476.5" cy="204" r="25.5"/>
	<circle class="st10" cx="476.5" cy="218.4" r="4.1"/>
	<path class="st10" d="M476.5,209.6L476.5,209.6c-2.2,0-4.1-1.8-4.1-4.1v-18.7c0-2.2,1.8-4.1,4.1-4.1l0,0c2.2,0,4.1,1.8,4.1,4.1
		v18.7C480.5,207.8,478.7,209.6,476.5,209.6z"/>
</g>
<g>
	<path class="st10" d="M195.8,97.1c5.9,6.2,10.3,13.3,13.1,21.1s4.3,16.3,4.3,25.4c0,19.9-6.3,36.1-19,48.7S164.1,212.5,142,215
		v35.6h-14.8v-61.1c6.8-0.5,13.5-1.6,20.1-3.3c6.7-1.7,12.6-4.4,17.9-8.1c5.5-4,9.7-8.8,12.8-14.4c3.1-5.6,4.6-13.5,4.6-23.6
		c0-16.1-3.4-28.5-10.2-37.1s-16.8-12.9-29.9-12.9c-4.9,0-9.3,0.7-13,2.2s-6.4,2.8-8.1,4.1c0.5,2.6,1.3,6.3,2.2,11.1
		c0.9,4.8,1.4,8.5,1.4,11.1c0,4-1.7,7.6-5.2,10.9c-3.4,3.3-8.4,4.9-15,4.9c-5.8,0-9.9-2-12.4-6c-2.5-4-3.7-8.6-3.7-13.9
		c0-4.3,1.2-8.5,3.5-12.6c2.4-4.1,6.1-8.1,11.1-12c4.3-3.4,10.1-6.4,17.5-8.9c7.4-2.5,15-3.7,23-3.7c11.4,0,21.5,1.8,30.3,5.4
		C182.9,86.3,190.1,91.1,195.8,97.1z M157.2,292.8c0,6-2.2,11.1-6.5,15.4c-4.3,4.2-9.5,6.4-15.5,6.4s-11.2-2.1-15.5-6.4
		c-4.4-4.2-6.5-9.4-6.5-15.4s2.2-11.2,6.5-15.5c4.3-4.4,9.5-6.5,15.5-6.5s11.2,2.2,15.5,6.5C155,281.6,157.2,286.8,157.2,292.8z"/>
</g>
<g>
	<path class="st11" d="M121.8,540.1c0,1.2-0.5,2.6-1.4,4.2s-2.3,3.2-3.9,4.9c-1.6,1.7-3.5,3.5-5.7,5.3c-2.2,1.8-4.5,3.7-6.9,5.5
		c-3.3,2.5-6.7,4.9-10.4,7.1c-3.7,2.3-7.4,4.3-11.2,6c-3.8,1.8-7.6,3.2-11.3,4.2c-3.8,1-7.3,1.6-10.8,1.6c-4.1,0-7.6-0.6-10.6-1.7
		c-3-1.2-5.4-2.8-7.4-4.9c-2-2.1-3.4-4.7-4.3-7.7c-0.9-3-1.4-6.3-1.4-10c0-3.1,0.4-6.2,1.1-9.4c0.7-3.2,1.7-6.4,3-9.5
		c1.3-3.1,2.7-6.1,4.4-9s3.5-5.6,5.5-8c1.1-1.4,2.5-2.9,4-4.4c1.6-1.5,3.2-3.1,4.9-4.5c1.7-1.5,3.5-2.9,5.3-4.2
		c1.8-1.3,3.5-2.4,5.1-3.4c1.1-0.7,2.6-1.4,4.3-2.3c1.7-0.8,3.6-1.6,5.5-2.3c1.9-0.7,3.8-1.3,5.6-1.8c1.8-0.5,3.4-0.7,4.8-0.7
		c2.4,0,4.3,0.2,5.7,0.5c1.4,0.3,2.7,0.9,3.8,1.7c0.5,0.4,1.1,1,1.8,1.8c0.7,0.8,1.3,1.7,1.9,2.7c0.6,1,1.1,1.9,1.5,2.8
		c0.4,0.9,0.6,1.7,0.6,2.4c0,0.4-0.1,1-0.4,1.7c-0.3,0.7-0.6,1.5-1,2.4s-0.9,1.7-1.4,2.6c-0.5,0.9-1.1,1.8-1.6,2.6
		c-0.5,0.8-1,1.5-1.5,2.2c-0.5,0.6-0.8,1.1-1.1,1.4c-1.6,1.9-3.6,2.8-6,2.8c-2,0-3.6-0.6-4.7-1.7c-1.1-1.1-1.7-2.6-1.7-4.3
		c0-0.5,0.3-1.4,0.9-2.5c0.6-1.2,1.6-2.4,3-3.8c0.7-0.7,1.3-1.3,1.8-2c0.5-0.7,0.9-1.2,1.2-1.7c-0.9-0.3-1.8-0.5-2.7-0.5
		c-1.1,0-2.5,0.3-4.1,0.8c-1.7,0.6-3.4,1.2-5.2,2.1c-1.8,0.8-3.5,1.8-5.2,2.8c-1.7,1-3.1,2-4.3,3c-3.3,2.7-6.4,5.7-9.3,9
		c-2.9,3.3-5.3,7-7.2,10.9c-0.7,1.6-1.5,3.2-2.1,5c-0.7,1.8-1.3,3.6-1.8,5.4c-0.5,1.8-0.9,3.7-1.2,5.5c-0.3,1.8-0.4,3.6-0.4,5.2
		c0,1.8,0.2,3.5,0.6,5c0.4,1.5,1,2.9,1.9,4c0.9,1.1,2.1,2,3.5,2.7c1.5,0.6,3.2,1,5.4,1c2.5,0,5.2-0.3,7.9-1c2.8-0.7,5.6-1.6,8.4-2.8
		c2.8-1.2,5.7-2.6,8.5-4.1c2.9-1.5,5.6-3.2,8.2-4.9c2.6-1.7,5.1-3.4,7.5-5.2c2.4-1.7,4.5-3.4,6.4-5c0.7-0.6,1.6-1.3,2.5-2.1
		c0.9-0.8,1.8-1.7,2.8-2.6c0.9-0.9,1.9-1.8,2.8-2.7c0.9-0.9,1.7-1.8,2.5-2.6c0.8,0.4,1.5,0.8,1.9,1.1c0.5,0.3,0.8,0.6,1.1,1
		c0.2,0.3,0.4,0.7,0.5,1.1C121.8,539.1,121.8,539.6,121.8,540.1z"/>
	<path class="st11" d="M214.1,539.5c0,0.5-0.2,1.1-0.5,1.8c-0.3,0.7-0.8,1.5-1.4,2.4c-0.4,0.6-0.8,1.2-1.4,2
		c-0.6,0.7-1.2,1.5-1.9,2.3c-0.7,0.8-1.3,1.5-1.9,2.3c-0.6,0.7-1.2,1.4-1.8,1.9c-2,2.1-4.2,4-6.5,6c-2.3,1.9-4.7,3.6-7.2,5.1
		c-2.5,1.5-5.1,2.7-7.7,3.6c-2.7,0.9-5.4,1.4-8.2,1.4c-2.4,0-4.6-0.4-6.4-1.3c-1.8-0.9-3.3-2.3-4.3-4.3c-0.4-0.6-0.7-1.7-1.1-3
		c-0.4-1.4-0.7-2.9-1-4.4c-0.3-1.6-0.6-3.1-0.8-4.7s-0.4-2.8-0.4-3.7c0-0.6-0.1-1.4-0.2-2.2c-0.1-0.8-0.2-1.6-0.3-2.4
		c-0.1-0.7-0.3-1.4-0.5-1.9c-0.2-0.5-0.5-0.8-0.8-0.8c-0.4,0-0.7,0.1-1,0.3c-0.6,0.3-1.7,1.1-3.2,2.5c-1.5,1.3-3.1,3-5,5.1
		c-1.9,2-3.9,4.4-6,7c-2.1,2.6-4.1,5.3-6,8.2c-0.7,1.1-1.4,2.2-2.2,3.5s-1.5,2.6-2.2,3.9c-0.7,1.3-1.4,2.6-2.1,3.9
		c-0.7,1.2-1.3,2.3-1.9,3.3c-0.4,0.6-0.9,1.1-1.4,1.5c-0.5,0.4-1.1,0.7-1.6,1c-0.5,0.2-1,0.4-1.4,0.5s-0.7,0.2-1,0.2
		c-0.8,0-1.5-0.2-2.2-0.5c-0.7-0.4-1.3-0.8-1.8-1.4c-0.5-0.6-0.9-1.2-1.2-1.9c-0.3-0.7-0.5-1.4-0.5-2.1c0-0.4,0.1-1.1,0.2-2.1
		c0.1-1,0.3-2.2,0.5-3.4c0.2-1.3,0.4-2.6,0.6-4c0.2-1.4,0.4-2.7,0.5-3.8c0.3-2.3,0.6-4.8,0.9-7.5c0.3-2.7,0.6-5.4,0.9-8.1
		c0.3-2.7,0.5-5.4,0.7-8c0.2-2.6,0.4-5,0.5-7.1c0-0.7,0.1-1.6,0.2-2.7c0.1-1.1,0.2-2.4,0.2-3.7c0.1-1.4,0.2-2.8,0.2-4.3
		c0.1-1.5,0.2-2.9,0.2-4.3c0.1-1.4,0.2-2.8,0.2-4c0.1-1.2,0.1-2.3,0.1-3.1c0-1,0.1-1.9,0.2-2.8c0.1-0.9,0.2-1.7,0.4-2.6
		c0.2-0.9,0.4-1.7,0.7-2.6c0.3-0.9,0.7-1.8,1.2-2.8c0.2-0.4,0.5-0.8,0.9-1.3c0.4-0.5,0.9-0.9,1.4-1.3c0.5-0.4,1.2-0.7,1.8-1
		c0.7-0.3,1.3-0.4,2-0.4c1.5,0,2.8,0.5,3.8,1.6c1,1,1.6,2.5,1.6,4.4c0,0.5-0.1,1.2-0.2,2.1c-0.1,0.9-0.3,1.8-0.4,2.6
		c-0.2,0.9-0.3,1.6-0.4,2.3c-0.1,0.7-0.2,1.1-0.2,1.3c-0.1,0.5-0.2,1.4-0.4,2.7c-0.2,1.3-0.4,2.8-0.6,4.6c-0.2,1.8-0.5,3.7-0.7,5.7
		c-0.2,2.1-0.5,4.2-0.8,6.3c-0.3,2.1-0.5,4.2-0.8,6.1c-0.2,2-0.5,3.8-0.7,5.3c-0.2,1.6-0.3,2.8-0.5,3.8s-0.2,1.6-0.2,1.7
		c-0.1,0.7-0.2,1.7-0.4,3c-0.2,1.3-0.3,2.6-0.5,4c-0.2,1.4-0.4,2.7-0.5,3.9c-0.2,1.2-0.3,2.1-0.3,2.6c0.3-0.5,0.7-1.1,1.3-1.9
		c0.5-0.8,1-1.6,1.6-2.4c0.5-0.8,1.1-1.6,1.6-2.4c0.5-0.7,0.9-1.3,1.1-1.6c0.6-0.9,1.2-1.8,2-2.9c0.8-1.1,1.6-2.2,2.4-3.3
		c0.9-1.1,1.7-2.2,2.7-3.3c0.9-1.1,1.8-2.1,2.7-3c1.1-1.1,2.3-2.3,3.7-3.5c1.4-1.2,2.8-2.3,4.4-3.3c1.5-1,3.1-1.8,4.7-2.4
		s3.1-1,4.6-1c0.4,0,0.9,0.1,1.5,0.3c0.6,0.2,1.2,0.4,1.8,0.8c0.6,0.3,1.1,0.8,1.6,1.2c0.5,0.5,0.9,1.1,1.1,1.7
		c0.5,1.3,0.9,2.8,1.2,4.7c0.3,1.8,0.6,3.7,0.9,5.7c0.3,2,0.5,3.9,0.8,5.9c0.3,1.9,0.6,3.7,1,5.2c0.4,1.5,0.8,2.8,1.3,3.8
		c0.5,1,1.1,1.4,1.8,1.4c1,0,1.9,0,2.7-0.1c0.8-0.1,1.7-0.2,2.4-0.4c0.8-0.2,1.6-0.4,2.4-0.7c0.8-0.3,1.7-0.7,2.6-1.1
		c2-1,3.6-1.9,5.1-2.7c1.4-0.9,2.8-1.7,4-2.7c1.3-0.9,2.5-2,3.8-3.1c1.3-1.2,2.8-2.5,4.4-4c1.8-1.6,3.3-3,4.7-4
		c1.3-1,2.3-1.5,2.9-1.5c0.4,0,0.8,0.1,1,0.3c0.3,0.2,0.5,0.4,0.6,0.7c0.1,0.3,0.2,0.6,0.3,0.9C214.1,539,214.1,539.2,214.1,539.5z"
		/>
	<path class="st11" d="M285.5,538.8c0,0.4-0.1,0.9-0.2,1.5c-0.2,0.6-0.4,1.2-0.6,1.8c-0.2,0.6-0.5,1.2-0.8,1.7
		c-0.3,0.6-0.6,1-0.9,1.4c-0.2,0.2-0.5,0.6-0.9,1c-0.4,0.4-0.8,0.9-1.3,1.5c-0.5,0.6-1.1,1.1-1.7,1.8s-1.2,1.3-1.9,1.9
		c-2.1,1.9-4.1,3.8-6.3,5.7c-2.1,1.9-4.3,3.5-6.6,5c-2.3,1.4-4.7,2.6-7.2,3.5c-2.5,0.9-5.2,1.3-8,1.3c-1.2,0-2.4-0.3-3.7-0.8
		c-1.2-0.5-2.4-1.3-3.5-2.2c-1.1-0.9-2-2-2.8-3.3c-0.8-1.3-1.4-2.7-1.7-4.2c-0.6,1.1-1.5,2.2-2.5,3.4c-1,1.2-2.2,2.4-3.4,3.6
		c-1.2,1.2-2.5,2.4-3.8,3.4c-1.3,1.1-2.5,2-3.7,2.8c-0.8,0.5-1.7,1.1-2.8,1.7c-1.1,0.6-2.3,1.1-3.5,1.6c-1.2,0.5-2.5,0.9-3.8,1.2
		c-1.3,0.3-2.4,0.5-3.5,0.5c-1.7,0-3.2-0.5-4.5-1.5c-1.3-1-2.3-2.2-3.2-3.6c-0.8-1.4-1.5-2.9-1.9-4.5c-0.4-1.6-0.6-3-0.6-4.3
		c0-2.3,0.3-4.7,1-7.2c0.7-2.4,1.6-4.8,2.7-7.1c1.1-2.3,2.3-4.5,3.6-6.6c1.3-2.1,2.6-4,3.9-5.6c1.3-1.7,3-3.4,4.8-5.1
		c1.9-1.7,3.8-3.2,5.9-4.5c2.1-1.3,4.1-2.4,6.1-3.2c2-0.8,3.8-1.2,5.3-1.2c0.9,0,1.7,0,2.6,0.1c0.9,0.1,1.8,0.1,2.7,0.2
		s1.7,0.3,2.6,0.5s1.5,0.5,2.2,0.8c0.4,0.3,0.9,0.8,1.4,1.5c0.5,0.7,1,1.5,1.4,2.3c0.4,0.8,0.8,1.7,1.1,2.5c0.3,0.8,0.5,1.5,0.5,1.9
		c0,1-0.2,2.2-0.5,3.5c-0.3,1.4-0.6,2.8-1,4.3s-0.7,3-1,4.6c-0.3,1.6-0.5,3.1-0.5,4.5c0,1,0.1,2,0.4,3c0.3,1,0.7,2,1.2,2.8
		c0.5,0.8,1.2,1.5,1.9,2c0.7,0.5,1.6,0.8,2.5,0.8c2.1,0,4.2-0.4,6.2-1.2c2.1-0.8,4.1-1.9,6.2-3.2c2.1-1.4,4.1-3,6.2-4.8
		c2.1-1.9,4.1-3.9,6.2-6c0.1,0,0.4-0.3,0.9-0.8c0.5-0.5,1.1-1.1,1.8-1.8s1.4-1.2,2.2-1.8c0.8-0.5,1.4-0.8,2-0.8c1,0,1.7,0.3,2,0.9
		C285.4,536.7,285.5,537.6,285.5,538.8z M237.1,533.4c0-0.3-0.1-0.7-0.2-1.1c-0.1-0.4-0.3-0.8-0.5-1.2c-0.2-0.4-0.4-0.7-0.7-1
		c-0.2-0.3-0.5-0.4-0.7-0.4c-2.3,0-4.5,0.6-6.4,1.9c-1.9,1.3-3.9,3-6,5.1c-1.2,1.2-2.4,2.8-3.8,4.7c-1.3,2-2.6,4.1-3.7,6.3
		c-1.1,2.2-2.1,4.5-2.8,6.7c-0.7,2.2-1.1,4.2-1.1,5.9c0,0.4,0,0.8,0.1,1.3c0.1,0.4,0.2,0.8,0.3,1.1c0.2,0.3,0.4,0.6,0.7,0.8
		c0.3,0.2,0.7,0.3,1.1,0.3c1.3,0,2.9-0.4,4.6-1.3c1.7-0.9,3.4-2,5.1-3.4c1.7-1.4,3.4-3,5-4.8s3-3.7,4.1-5.6c1.3-2.3,2.5-4.8,3.5-7.3
		C236.7,538.8,237.1,536.1,237.1,533.4z"/>
	<path class="st11" d="M333.3,528.1c0,0.7-0.1,1.3-0.4,1.8c-0.3,0.5-0.6,1-1.1,1.5s-0.9,0.8-1.4,1.2c-0.5,0.4-1,0.7-1.5,1
		c-1.6,0.7-3.3,1.3-5.1,1.9c-1.8,0.5-3.6,1-5.5,1.4c-1.8,0.4-3.6,0.7-5.3,0.9c-1.7,0.2-3.3,0.5-4.8,0.6c-1,0.1-2,0.2-3.1,0.3
		c-1.1,0.1-2.1,0.2-3.2,0.3c-1,0.1-2,0.2-2.9,0.3c-0.9,0.1-1.6,0.2-2.3,0.3c-0.8,3-1.5,5.9-2.2,8.7c-0.7,2.8-1.3,5.4-1.8,7.8
		c-0.1,0.4-0.2,1-0.3,1.8c-0.1,0.7-0.3,1.6-0.5,2.4c-0.2,0.9-0.3,1.8-0.5,2.8c-0.1,1-0.3,1.9-0.4,2.8c-0.1,0.9-0.2,1.7-0.3,2.3
		c-0.1,0.7-0.1,1.2-0.1,1.6c0,1.2,0.2,2.1,0.6,2.6s0.8,0.9,1.2,1.2c0.7,0.6,1.3,1.1,1.8,1.7c0.5,0.5,0.7,1.3,0.7,2.2
		c0,0.7-0.2,1.4-0.7,2c-0.5,0.6-1.1,1.2-1.9,1.6c-0.7,0.5-1.5,0.8-2.4,1.1c-0.9,0.3-1.7,0.4-2.4,0.4c-1.3,0-2.4-0.3-3.5-0.9
		c-1-0.6-1.9-1.4-2.7-2.5c-0.7-1-1.3-2.2-1.7-3.5c-0.4-1.3-0.6-2.7-0.6-4c0-2.3,0.2-4.9,0.5-7.7c0.4-2.8,0.9-5.6,1.5-8.5
		c0.3-1.2,0.6-2.6,0.9-4.1c0.3-1.5,0.6-2.9,0.9-4.3c0.3-1.3,0.5-2.5,0.7-3.6s0.4-1.7,0.4-2.1c-0.7,0-1.8,0.1-3.2,0.3
		c-1.4,0.2-3.1,0.3-5,0.3c-1.6,0-2.9-0.1-4-0.3c-1.1-0.2-2-0.6-2.7-1.1c-0.7-0.5-1.2-1.3-1.5-2.2c-0.3-0.9-0.5-2.1-0.5-3.6
		c0-0.9,0.3-1.5,0.9-2c0.6-0.5,1.3-0.9,2.2-1.2c0.9-0.3,1.8-0.4,2.8-0.5c1-0.1,1.8-0.1,2.6-0.1c0.4,0,1,0,1.9-0.1
		c0.9-0.1,1.9-0.2,2.9-0.3s2.1-0.2,3-0.3c1-0.1,1.7-0.1,2.3-0.1c0.2,0,0.4-0.3,0.7-1c0.3-0.7,0.5-1.5,0.8-2.6
		c0.3-1.1,0.6-2.2,0.9-3.5s0.6-2.6,0.9-3.8c0.3-1.3,0.5-2.4,0.8-3.5c0.2-1.1,0.4-1.9,0.6-2.5c0.4-1.5,0.7-3.2,1-5
		c0.3-1.8,0.7-3.6,1.2-5.2c0.5-1.6,1.3-3,2.3-4.2c1-1.1,2.4-1.7,4.2-1.7c1.9,0,3.3,0.4,4.3,1.2c0.9,0.8,1.4,2.2,1.4,4.1
		c0,0.9-0.1,1.9-0.2,3.1c-0.2,1.2-0.4,2.4-0.8,3.6c-0.9,2.7-1.6,5.3-2.2,7.7c-0.6,2.4-1.1,4.4-1.5,6.2c-0.4,1.8-0.7,3.6-1,5.6
		c1.5,0,2.8,0,4.2,0c1.3,0,2.7-0.1,4.1-0.1c1.4-0.1,2.8-0.1,4.3-0.2s3.1-0.3,4.9-0.5c2.1-0.2,3.8-0.5,5.2-0.7
		c1.4-0.2,2.7-0.5,3.8-0.7c1.1-0.2,2.1-0.4,3-0.5c0.9-0.1,1.8-0.2,2.8-0.2c0.5,0,1,0.1,1.4,0.4C333.1,526.5,333.3,527.1,333.3,528.1
		z"/>
	<path class="st11" d="M352.8,502.7c0,1-0.2,2.2-0.4,3.6c-0.2,1.4-0.6,3.1-1.1,5v-0.1c-0.9,3.7-2.2,6.9-3.9,9.8V521
		c-0.9,1.7-1.9,2.9-3.1,3.7c-1.2,0.8-2.4,1.2-3.8,1.2c-0.8,0-1.5-0.1-2.2-0.4c-0.7-0.2-1.3-0.6-1.9-1c-0.5-0.4-1-0.9-1.3-1.5
		c-0.3-0.6-0.5-1.2-0.5-1.9c0-0.4,0.1-0.9,0.3-1.4c0.2-0.5,0.4-1.1,0.7-1.6c0.3-0.5,0.6-1,0.9-1.4c0.3-0.4,0.6-0.8,1-1.1
		c0.8-0.7,1.4-1.4,2-2.1c0.5-0.7,1-1.4,1.3-2.2c0.3-0.8,0.6-1.6,0.7-2.5c0.1-0.9,0.2-1.9,0.2-3c0-0.9-0.3-1.7-0.8-2.2
		c-0.4-0.5-0.8-1-1.3-1.5c-0.5-0.5-1-1-1.5-1.5c-1.7-1.5-2.6-2.5-2.6-3.1l-0.4-2.7c0-0.6,0-1.1,0.1-1.6c0.1-0.5,0.1-0.8,0.2-1
		c0.4-1,1.5-1.9,3.4-2.7c0.7-0.4,1.3-0.6,1.9-0.7s1.1-0.2,1.5-0.2c1,0,2.1,0.5,3.2,1.5c0.3,0.3,0.7,0.6,1.1,1
		c0.4,0.4,0.7,0.8,1.1,1.1c1,1,1.7,1.7,2,2.1c0.4,0.4,0.6,0.6,0.7,0.7c0.5,0.7,0.9,1.4,1.3,2.1c0.4,0.6,0.6,1.2,0.7,1.7
		c0.2,0.5,0.4,1.1,0.5,1.8C352.7,501.2,352.8,501.9,352.8,502.7L352.8,502.7z"/>
	<path class="st12" d="M384.8,506.7c0,0.5-0.1,1.4-0.3,2.6c-0.2,1.3-0.7,2.8-1.5,4.7c-0.6,1.5-1.1,2.8-1.4,3.9
		c-0.4,1.1-0.6,1.9-0.6,2.4c-0.6,4-1.3,8.4-1.8,13c-0.6,4.6-1.2,9.7-1.9,15.1c-0.2,1.5-0.4,3-0.6,4.7s-0.4,3.1-0.5,4.6
		c-0.1,1.4-0.3,2.7-0.3,3.8s-0.1,1.8-0.1,2.2c0,0.3,0.1,0.6,0.2,1c0.1,0.4,0.3,0.8,0.5,1.3c0.2,0.4,0.3,0.8,0.5,1.2
		c0.1,0.4,0.2,0.7,0.2,1c0,0.8-0.2,1.6-0.7,2.4c-0.5,0.8-1.3,1.6-2.4,2.4c-0.9,0.7-1.8,1.2-2.8,1.5c-0.9,0.3-1.8,0.5-2.8,0.6
		c-1.7,0-3-0.4-4-1.3c-0.9-0.9-1.6-1.9-2.1-3s-0.7-2.4-0.8-3.7c-0.1-1.3-0.1-2.3-0.1-3.2c0-1.7,0-3.3,0.1-4.9
		c0.1-1.5,0.2-3.1,0.4-4.6c0.3-2.4,0.7-5.2,1.2-8.5c0.5-3.2,1.1-6.7,1.7-10.3c0.1-0.6,0.3-1.5,0.5-2.7c0.2-1.2,0.5-2.7,0.8-4.3
		c0.3-1.6,0.6-3.3,1-5.1c0.3-1.8,0.7-3.5,1-5.1c0.3-1.6,0.6-3.1,0.9-4.4c0.2-1.3,0.4-2.3,0.5-2.9c0.2-1.2,0.4-2.1,0.5-2.7
		c0.1-0.6,0.2-1.2,0.3-1.8c0.1-0.5,0.2-1.2,0.4-1.8c0.1-0.7,0.3-1.6,0.6-2.8l-0.1,0.1c0.1-0.6,0.3-1.2,0.6-1.9
		c0.4-0.7,0.8-1.3,1.3-2c0.5-0.6,1.1-1.1,1.8-1.5c0.7-0.4,1.3-0.6,1.9-0.6c1.5,0,2.7,0.3,3.8,1c1,0.7,1.9,1.5,2.5,2.5
		c0.6,1,1.1,2,1.3,3.2c0.3,1.1,0.4,2.1,0.4,3V506.7z"/>
	<path class="st12" d="M399.7,557.5c0.4-1.6,0.9-3.6,1.5-6c0.5-2.4,1.1-5.1,1.7-7.9c0.6-2.8,1.2-5.8,1.8-8.9c0.6-3.1,1.2-6.1,1.6-9
		c0.5-2.9,0.9-5.7,1.3-8.2c0.4-2.5,0.6-4.7,0.8-6.5v-2.9c0-0.6,0.1-1.4,0.3-2.3c0.2-0.9,0.6-1.8,1.1-2.6c0.5-0.8,1.3-1.5,2.3-2.1
		c1-0.6,2.3-0.9,3.9-0.9c1.3,0,2.4,0.2,3.2,0.7c0.8,0.5,1.5,1.2,2.1,2.1c0.6,0.9,1,2,1.4,3.2c0.4,1.3,0.8,2.7,1.2,4.2
		c0.4,1.5,1.1,3.3,2,5.4c1,2.1,2.1,4.5,3.5,7.1c1.4,2.6,2.9,5.3,4.6,8.2s3.5,5.8,5.5,8.8c1.9,2.9,3.9,5.9,5.9,8.7s4.1,5.6,6.1,8.1
		c0.5-1.9,0.9-3.9,1.4-6s0.9-4.3,1.3-6.4c0.4-2.2,0.8-4.3,1.2-6.4c0.4-2.1,0.7-4,1-5.8c0.3-1.8,0.6-3.4,0.8-4.7
		c0.2-1.4,0.4-2.4,0.6-3.2c0.5-2.9,0.9-5.5,1.4-7.7c0.4-2.2,0.7-4.3,1-6.2c0.3-1.9,0.5-3.8,0.6-5.6s0.2-3.9,0.2-6.1
		c0-0.6,0.1-1.2,0.2-1.9c0.1-0.7,0.3-1.3,0.5-2s0.4-1.2,0.7-1.8s0.6-1,1-1.3c0.6-0.6,1.2-1.1,1.8-1.4s1-0.5,1.5-0.7
		c0.5-0.1,1-0.2,1.5-0.3c0.5,0,1-0.1,1.6-0.1c1.3,0,2.3,0.3,3,0.9c0.7,0.6,1.3,1.3,1.6,2.3c0.4,0.9,0.6,1.9,0.7,3
		c0.1,1.1,0.1,2.1,0.1,3.2c0,0.3-0.1,0.9-0.2,1.8c-0.1,0.9-0.3,1.8-0.5,2.9s-0.4,2.1-0.7,3.2c-0.2,1.1-0.5,2.1-0.7,2.9
		c-1.5,5.6-2.8,11-3.9,16s-2,9.8-2.8,14.2c-0.8,4.4-1.5,8.5-2,12.3c-0.6,3.8-1,7.2-1.4,10.3c0,0.5-0.1,0.9-0.1,1.3
		c-0.1,0.4-0.1,0.8-0.1,1.3c0,0.5,0,1-0.1,1.7c0,0.6,0,1.4,0,2.4c0,1.8-0.3,3.3-0.9,4.3c-0.6,1-1.3,1.8-2.2,2.2
		c-0.9,0.5-1.8,0.8-2.8,0.9c-1,0.1-1.8,0.1-2.6,0.1c-1.5,0-2.8-0.3-3.7-1c-0.9-0.7-1.8-1.6-2.6-2.8c-0.8-1.2-1.6-2.6-2.5-4.2
		c-0.9-1.6-2-3.4-3.5-5.3c-4-5.4-8-11.2-12.1-17.3c-4.1-6.1-8.2-13-12.5-20.6c-0.7,3.2-1.3,6.5-1.9,9.9c-0.6,3.5-1.1,6.9-1.6,10.2
		c-0.5,3.4-0.9,6.6-1.3,9.7c-0.4,3.1-0.7,5.9-1,8.3c0,0.9-0.1,1.9-0.2,3c-0.1,1.1-0.3,2.1-0.4,3.1c-0.2,1-0.3,1.8-0.5,2.5
		c-0.2,0.7-0.3,1.2-0.3,1.3c-0.2,0.4-0.5,1-0.9,1.6s-0.9,1.3-1.4,1.8c-0.6,0.6-1.2,1.1-1.9,1.5c-0.7,0.4-1.4,0.6-2.2,0.6
		c-1.4,0-2.5-0.2-3.4-0.6s-1.5-1-2-1.7c-0.5-0.7-0.8-1.7-1-2.8c-0.2-1.1-0.3-2.4-0.3-3.9c0-0.6,0.1-1.4,0.2-2.4s0.3-2,0.5-3.2
		c0.2-1.2,0.5-2.4,0.7-3.6C399.1,559.7,399.4,558.5,399.7,557.5z"/>
</g>
<rect x="52.5" y="523.5" class="st13" width="376.9" height="0"/>
<rect x="339.7" y="705.9" class="st13" width="1.1" height="8.5"/>
</svg>
