<?xml version="1.0" encoding="utf-8"?>
<!-- Generator: Adobe Illustrator 24.3.0, SVG Export Plug-In . SVG Version: 6.00 Build 0)  -->
<svg version="1.1" id="Capa_1" xmlns="http://www.w3.org/2000/svg" xmlns:xlink="http://www.w3.org/1999/xlink" x="0px" y="0px"
	 viewBox="0 0 512 512" style="enable-background:new 0 0 512 512;" xml:space="preserve">
<style type="text/css">
	.st0{fill:#3F90FF;}
	.st1{display:none;fill:#E62E2E;}
	.st2{fill:#FF9C51;}
	.st3{display:none;fill:#606060;}
	.st4{fill:#F9F4F3;}
	.st5{display:none;fill:#F0E6E1;}
	.st6{display:none;}
	.st7{display:inline;}
	.st8{display:inline;fill:#F0E6E1;}
	.st9{fill:#CC2F3D;}
	.st10{fill:#FFFFFF;}
</style>
<path class="st0" d="M406,31H45C20.1,31,0,51.1,0,76v240c0,24.9,20.1,45,45,45h15c0,0,0,75,0,75c0,6,3.6,11.4,9.3,13.8
	c5.4,2.4,12,1.2,16.2-3.3l86.8-85.5H406c24.9,0,45-20.1,45-45V76C451,51.1,430.9,31,406,31L406,31z"/>
<path class="st1" d="M-45.9,61v240c0,24.9-20.1,45-45,45h-180V16h180C-66,16-45.9,36.1-45.9,61z"/>
<path class="st2" d="M466,211h-90h-90c-24.8,0-45,20.2-45,45v120c0,24.8,20.2,45,45,45h83.8l6.2,6.2l49.4,49.4
	c4.3,4.3,10.8,5.6,16.3,3.3c5.6-2.3,9.3-7.8,9.3-13.9v-45h15c24.8,0,46-20.2,46-45V256C512,231.2,490.8,211,466,211L466,211z"/>
<path class="st3" d="M642.2,374.9c5.6-2.3,9.3-7.8,9.3-13.9v-45h15c24.8,0,46-20.2,46-45V151c0-24.8-21.2-45-46-45h-90v216.2
	l49.4,49.4C630.2,375.9,636.7,377.2,642.2,374.9z"/>
<path class="st4" d="M416.6,290.4c-5.9-5.9-15.4-5.9-21.2,0L376,309.8l-15,15l-11.9-11.9c-5.9-5.9-15.4-5.9-21.2,0s-5.9,15.4,0,21.2
	l22.5,22.5c2.9,2.9,6.8,4.4,10.6,4.4s7.7-1.5,10.6-4.4l4.4-4.4l40.6-40.6C422.5,305.7,422.5,296.3,416.6,290.4L416.6,290.4z"/>
<path class="st5" d="M628.4,382.2c-5.9-5.9-15.4-5.9-21.2,0l-19.4,19.4V444l40.6-40.6C634.2,397.6,634.2,388.1,628.4,382.2z"/>
<g class="st6">
	<g class="st7">
		<path class="st4" d="M-170.4,560.9h-90c-8.3,0-15-6.7-15-15c0-8.3,6.7-15,15-15h90c8.3,0,15,6.7,15,15
			C-155.4,554.2-162.1,560.9-170.4,560.9z"/>
		<path class="st4" d="M-125.4,485.9c0,8.4-6.6,15-15,15h-120c-8.4,0-15-6.6-15-15c0-8.4,6.6-15,15-15h120
			C-132,470.9-125.4,477.5-125.4,485.9z"/>
		<path class="st4" d="M-5.4,425.9c0,8.4-6.6,15-15,15h-240c-8.4,0-15-6.6-15-15c0-8.4,6.6-15,15-15h240
			C-12,410.9-5.4,417.5-5.4,425.9z"/>
	</g>
	<path class="st8" d="M-125.4,485.9c0,8.4-6.6,15-15,15v-30C-132,470.9-125.4,477.5-125.4,485.9z"/>
	<path class="st8" d="M-5.4,425.9c0,8.4-6.6,15-15,15h-120v-30h120C-12,410.9-5.4,417.5-5.4,425.9z"/>
</g>
<g>
	<circle class="st9" cx="476.5" cy="204" r="25.5"/>
	<circle class="st10" cx="476.5" cy="218.4" r="4.1"/>
	<path class="st10" d="M476.5,209.6L476.5,209.6c-2.2,0-4.1-1.8-4.1-4.1v-18.7c0-2.2,1.8-4.1,4.1-4.1l0,0c2.2,0,4.1,1.8,4.1,4.1
		v18.7C480.5,207.8,478.7,209.6,476.5,209.6z"/>
</g>
<g>
	<path class="st10" d="M195.8,97.1c5.9,6.2,10.3,13.3,13.1,21.1c2.8,7.8,4.3,16.3,4.3,25.4c0,19.9-6.3,36.1-19,48.7
		c-12.7,12.6-30.1,20.2-52.2,22.7v35.6h-14.8v-61.1c6.8-0.5,13.5-1.6,20.1-3.3c6.7-1.7,12.6-4.4,17.9-8.1c5.5-4,9.7-8.8,12.8-14.4
		c3.1-5.6,4.6-13.5,4.6-23.6c0-16.1-3.4-28.5-10.2-37.1c-6.8-8.6-16.8-12.9-29.9-12.9c-4.9,0-9.3,0.7-13,2.2
		c-3.7,1.5-6.4,2.8-8.1,4.1c0.5,2.6,1.3,6.3,2.2,11.1c0.9,4.8,1.4,8.5,1.4,11.1c0,4-1.7,7.6-5.2,10.9c-3.4,3.3-8.4,4.9-15,4.9
		c-5.8,0-9.9-2-12.4-6c-2.5-4-3.7-8.6-3.7-13.9c0-4.3,1.2-8.5,3.5-12.6c2.4-4.1,6.1-8.1,11.1-12c4.3-3.4,10.1-6.4,17.5-8.9
		c7.4-2.5,15-3.7,23-3.7c11.4,0,21.5,1.8,30.3,5.4C182.9,86.3,190.1,91.1,195.8,97.1z M157.2,292.8c0,6-2.2,11.1-6.5,15.4
		c-4.3,4.2-9.5,6.4-15.5,6.4c-6,0-11.2-2.1-15.5-6.4c-4.4-4.2-6.5-9.4-6.5-15.4c0-6,2.2-11.2,6.5-15.5c4.3-4.4,9.5-6.5,15.5-6.5
		c6,0,11.2,2.2,15.5,6.5C155,281.6,157.2,286.8,157.2,292.8z"/>
</g>
</svg>
